<svg width="200" height="200"  viewBox="20 20 160 160" style="opacity: 1;">
  <line class="link" x1="155.91290308672757" y1="46.67495152725051" x2="117.00300570740922"
        y2="52.99597942770342"></line>
  <line class="link" x1="155.91290308672757" y1="46.67495152725051" x2="132.92836701605415"
        y2="30.858794594199917"></line>
  <line class="link" x1="155.91290308672757" y1="46.67495152725051" x2="141.03937913398758"
        y2="71.86188150549026"></line>
  <line class="link" x1="117.00300570740922" y1="52.99597942770342" x2="132.92836701605415"
        y2="30.858794594199917"></line>
  <line class="link" x1="117.00300570740922" y1="52.99597942770342" x2="141.03937913398758"
        y2="71.86188150549026"></line>
  <line class="link" x1="132.92836701605415" y1="30.858794594199917" x2="141.03937913398758"
        y2="71.86188150549026"></line>
  <line class="link" x1="141.03937913398758" y1="71.86188150549026" x2="149.44051142916118"
        y2="108.81982308174676"></line>
  <line class="link" x1="149.44051142916118" y1="108.81982308174676" x2="134.9840416315539"
        y2="141.78266308869746"></line>
  <line class="link" x1="134.9840416315539" y1="141.78266308869746" x2="99.68574896559103"
        y2="148.85124813634985"></line>
  <line class="link" x1="99.68574896559103" y1="148.85124813634985" x2="64.53266625829997"
        y2="134.61280835810103"></line>
  <line class="link" x1="64.53266625829997" y1="134.61280835810103" x2="49.45693822207852"
        y2="108.15715813406113"></line>
  <line class="link" x1="64.53266625829997" y1="134.61280835810103" x2="37.474386246613335"
        y2="145.60933361332462"></line>
  <line class="link" x1="64.53266625829997" y1="134.61280835810103" x2="25.231883987122334"
        y2="120.46167160773288"></line>
  <line class="link" x1="49.45693822207852" y1="108.15715813406113" x2="37.474386246613335"
        y2="145.60933361332462"></line>
  <line class="link" x1="49.45693822207852" y1="108.15715813406113" x2="25.231883987122334"
        y2="120.46167160773288"></line>
  <line class="link" x1="37.474386246613335" y1="145.60933361332462" x2="25.231883987122334"
        y2="120.46167160773288"></line>
  <circle class="node" cx="155.91290308672757" cy="46.67495152725051" r="5" style="fill: rgb(31, 119, 180);">
    <title>0</title>
  </circle>
  <circle class="node" cx="117.00300570740922" cy="52.99597942770342" r="5" style="fill: rgb(31, 119, 180);">
    <title>1</title>
  </circle>
  <circle class="node" cx="132.92836701605415" cy="30.858794594199917" r="5" style="fill: rgb(31, 119, 180);">
    <title>2</title>
  </circle>
  <circle class="node" cx="141.03937913398758" cy="71.86188150549026" r="5" style="fill: rgb(31, 119, 180);">
    <title>3</title>
  </circle>
  <circle class="node" cx="149.44051142916118" cy="108.81982308174676" r="5" style="fill: rgb(174, 199, 232);">
    <title>4</title>
  </circle>
  <circle class="node" cx="134.9840416315539" cy="141.78266308869746" r="5" style="fill: rgb(174, 199, 232);">
    <title>5</title>
  </circle>
  <circle class="node" cx="99.68574896559103" cy="148.85124813634985" r="5" style="fill: rgb(174, 199, 232);">
    <title>6</title>
  </circle>
  <circle class="node" cx="64.53266625829997" cy="134.61280835810103" r="5" style="fill: rgb(255, 127, 14);">
    <title>7</title>
  </circle>
  <circle class="node" cx="49.45693822207852" cy="108.15715813406113" r="5" style="fill: rgb(255, 127, 14);">
    <title>8</title>
  </circle>
  <circle class="node" cx="37.474386246613335" cy="145.60933361332462" r="5" style="fill: rgb(255, 127, 14);">
    <title>9</title>
  </circle>
  <circle class="node" cx="25.231883987122334" cy="120.46167160773288" r="5" style="fill: rgb(255, 127, 14);">
    <title>10</title>
  </circle>
</svg>
